<?xml version="1.0" encoding="utf-8" standalone="no"?>
<!DOCTYPE svg PUBLIC "-//W3C//DTD SVG 1.1//EN"
  "http://www.w3.org/Graphics/SVG/1.1/DTD/svg11.dtd">
<svg height="448pt" version="1.1" viewBox="0 0 416 448" width="416pt" xmlns="http://www.w3.org/2000/svg" xmlns:xlink="http://www.w3.org/1999/xlink">
 <metadata>
  <rdf:RDF xmlns:cc="http://creativecommons.org/ns#" xmlns:dc="http://purl.org/dc/elements/1.1/" xmlns:rdf="http://www.w3.org/1999/02/22-rdf-syntax-ns#">
   <cc:Work>
    <dc:type rdf:resource="http://purl.org/dc/dcmitype/StillImage"/>
    <dc:date>2022-03-03T16:55:12.813889</dc:date>
    <dc:format>image/svg+xml</dc:format>
    <dc:creator>
     <cc:Agent>
      <dc:title>Matplotlib v3.4.2, https://matplotlib.org/</dc:title>
     </cc:Agent>
    </dc:creator>
   </cc:Work>
  </rdf:RDF>
 </metadata>
 <defs>
  <style type="text/css">*{stroke-linecap:butt;stroke-linejoin:round;}</style>
 </defs>
 <g id="figure_1">
  <g id="patch_1">
   <path d="M 0 448 
L 416 448 
L 416 0 
L 0 0 
z
" style="fill:#ffffff;"/>
  </g>
  <g id="axes_1"/>
  <g id="axes_2">
   <g id="patch_2">
    <path clip-path="url(#p3c4e59c5fb)" d="M 52 383.458586 
L 374.4 383.458586 
L 374.4 365.59419 
L 52 365.59419 
z
" style="fill:#f5f5f5;"/>
   </g>
   <g id="patch_3">
    <path clip-path="url(#p3c4e59c5fb)" d="M 52 338.797597 
L 374.4 338.797597 
L 374.4 320.933201 
L 52 320.933201 
z
" style="fill:#f5f5f5;"/>
   </g>
   <g id="patch_4">
    <path clip-path="url(#p3c4e59c5fb)" d="M 52 294.136608 
L 374.4 294.136608 
L 374.4 276.272212 
L 52 276.272212 
z
" style="fill:#f5f5f5;"/>
   </g>
   <g id="patch_5">
    <path clip-path="url(#p3c4e59c5fb)" d="M 52 249.475619 
L 374.4 249.475619 
L 374.4 231.611223 
L 52 231.611223 
z
" style="fill:#f5f5f5;"/>
   </g>
   <g id="matplotlib.axis_1"/>
   <g id="matplotlib.axis_2">
    <g id="ytick_1">
     <g id="line2d_1">
      <path clip-path="url(#p3c4e59c5fb)" d="M 52 374.526388 
L 374.4 374.526388 
" style="fill:none;stroke:#ffffff;stroke-linecap:square;stroke-width:0.8;"/>
     </g>
    </g>
    <g id="ytick_2">
     <g id="line2d_2">
      <path clip-path="url(#p3c4e59c5fb)" d="M 52 352.195894 
L 374.4 352.195894 
" style="fill:none;stroke:#ffffff;stroke-linecap:square;stroke-width:0.8;"/>
     </g>
    </g>
    <g id="ytick_3">
     <g id="line2d_3">
      <path clip-path="url(#p3c4e59c5fb)" d="M 52 329.865399 
L 374.4 329.865399 
" style="fill:none;stroke:#ffffff;stroke-linecap:square;stroke-width:0.8;"/>
     </g>
    </g>
    <g id="ytick_4">
     <g id="line2d_4">
      <path clip-path="url(#p3c4e59c5fb)" d="M 52 307.534905 
L 374.4 307.534905 
" style="fill:none;stroke:#ffffff;stroke-linecap:square;stroke-width:0.8;"/>
     </g>
    </g>
    <g id="ytick_5">
     <g id="line2d_5">
      <path clip-path="url(#p3c4e59c5fb)" d="M 52 285.20441 
L 374.4 285.20441 
" style="fill:none;stroke:#ffffff;stroke-linecap:square;stroke-width:0.8;"/>
     </g>
    </g>
    <g id="ytick_6">
     <g id="line2d_6">
      <path clip-path="url(#p3c4e59c5fb)" d="M 52 262.873916 
L 374.4 262.873916 
" style="fill:none;stroke:#ffffff;stroke-linecap:square;stroke-width:0.8;"/>
     </g>
    </g>
    <g id="ytick_7">
     <g id="line2d_7">
      <path clip-path="url(#p3c4e59c5fb)" d="M 52 240.543421 
L 374.4 240.543421 
" style="fill:none;stroke:#ffffff;stroke-linecap:square;stroke-width:0.8;"/>
     </g>
    </g>
    <g id="ytick_8">
     <g id="line2d_8">
      <path clip-path="url(#p3c4e59c5fb)" d="M 52 218.212927 
L 374.4 218.212927 
" style="fill:none;stroke:#ffffff;stroke-linecap:square;stroke-width:0.8;"/>
     </g>
    </g>
   </g>
  </g>
  <g id="axes_3">
   <g id="matplotlib.axis_3">
    <g id="ytick_9">
     <g id="line2d_9">
      <path clip-path="url(#p9ce8625aeb)" d="M 202.732468 374.526388 
L 374.4 374.526388 
" style="fill:none;stroke:#ffffff;stroke-linecap:square;stroke-width:0.8;"/>
     </g>
     <g id="line2d_10"/>
     <g id="text_1">
      <!-- ISONIAZID -->
      <g style="fill:#555555;" transform="translate(147.29028 378.325607)scale(0.1 -0.1)">
       <defs>
        <path d="M 628 4666 
L 1259 4666 
L 1259 0 
L 628 0 
L 628 4666 
z
" id="DejaVuSans-49" transform="scale(0.015625)"/>
        <path d="M 3425 4513 
L 3425 3897 
Q 3066 4069 2747 4153 
Q 2428 4238 2131 4238 
Q 1616 4238 1336 4038 
Q 1056 3838 1056 3469 
Q 1056 3159 1242 3001 
Q 1428 2844 1947 2747 
L 2328 2669 
Q 3034 2534 3370 2195 
Q 3706 1856 3706 1288 
Q 3706 609 3251 259 
Q 2797 -91 1919 -91 
Q 1588 -91 1214 -16 
Q 841 59 441 206 
L 441 856 
Q 825 641 1194 531 
Q 1563 422 1919 422 
Q 2459 422 2753 634 
Q 3047 847 3047 1241 
Q 3047 1584 2836 1778 
Q 2625 1972 2144 2069 
L 1759 2144 
Q 1053 2284 737 2584 
Q 422 2884 422 3419 
Q 422 4038 858 4394 
Q 1294 4750 2059 4750 
Q 2388 4750 2728 4690 
Q 3069 4631 3425 4513 
z
" id="DejaVuSans-53" transform="scale(0.015625)"/>
        <path d="M 2522 4238 
Q 1834 4238 1429 3725 
Q 1025 3213 1025 2328 
Q 1025 1447 1429 934 
Q 1834 422 2522 422 
Q 3209 422 3611 934 
Q 4013 1447 4013 2328 
Q 4013 3213 3611 3725 
Q 3209 4238 2522 4238 
z
M 2522 4750 
Q 3503 4750 4090 4092 
Q 4678 3434 4678 2328 
Q 4678 1225 4090 567 
Q 3503 -91 2522 -91 
Q 1538 -91 948 565 
Q 359 1222 359 2328 
Q 359 3434 948 4092 
Q 1538 4750 2522 4750 
z
" id="DejaVuSans-4f" transform="scale(0.015625)"/>
        <path d="M 628 4666 
L 1478 4666 
L 3547 763 
L 3547 4666 
L 4159 4666 
L 4159 0 
L 3309 0 
L 1241 3903 
L 1241 0 
L 628 0 
L 628 4666 
z
" id="DejaVuSans-4e" transform="scale(0.015625)"/>
        <path d="M 2188 4044 
L 1331 1722 
L 3047 1722 
L 2188 4044 
z
M 1831 4666 
L 2547 4666 
L 4325 0 
L 3669 0 
L 3244 1197 
L 1141 1197 
L 716 0 
L 50 0 
L 1831 4666 
z
" id="DejaVuSans-41" transform="scale(0.015625)"/>
        <path d="M 359 4666 
L 4025 4666 
L 4025 4184 
L 1075 531 
L 4097 531 
L 4097 0 
L 288 0 
L 288 481 
L 3238 4134 
L 359 4134 
L 359 4666 
z
" id="DejaVuSans-5a" transform="scale(0.015625)"/>
        <path d="M 1259 4147 
L 1259 519 
L 2022 519 
Q 2988 519 3436 956 
Q 3884 1394 3884 2338 
Q 3884 3275 3436 3711 
Q 2988 4147 2022 4147 
L 1259 4147 
z
M 628 4666 
L 1925 4666 
Q 3281 4666 3915 4102 
Q 4550 3538 4550 2338 
Q 4550 1131 3912 565 
Q 3275 0 1925 0 
L 628 0 
L 628 4666 
z
" id="DejaVuSans-44" transform="scale(0.015625)"/>
       </defs>
       <use xlink:href="#DejaVuSans-49"/>
       <use x="29.492188" xlink:href="#DejaVuSans-53"/>
       <use x="92.96875" xlink:href="#DejaVuSans-4f"/>
       <use x="171.679688" xlink:href="#DejaVuSans-4e"/>
       <use x="246.484375" xlink:href="#DejaVuSans-49"/>
       <use x="275.976562" xlink:href="#DejaVuSans-41"/>
       <use x="344.384766" xlink:href="#DejaVuSans-5a"/>
       <use x="412.890625" xlink:href="#DejaVuSans-49"/>
       <use x="442.382812" xlink:href="#DejaVuSans-44"/>
      </g>
     </g>
    </g>
    <g id="ytick_10">
     <g id="line2d_11">
      <path clip-path="url(#p9ce8625aeb)" d="M 202.732468 352.195894 
L 374.4 352.195894 
" style="fill:none;stroke:#ffffff;stroke-linecap:square;stroke-width:0.8;"/>
     </g>
     <g id="line2d_12"/>
     <g id="text_2">
      <!-- RIFAMPICIN -->
      <g style="fill:#555555;" transform="translate(142.632468 355.995112)scale(0.1 -0.1)">
       <defs>
        <path d="M 2841 2188 
Q 3044 2119 3236 1894 
Q 3428 1669 3622 1275 
L 4263 0 
L 3584 0 
L 2988 1197 
Q 2756 1666 2539 1819 
Q 2322 1972 1947 1972 
L 1259 1972 
L 1259 0 
L 628 0 
L 628 4666 
L 2053 4666 
Q 2853 4666 3247 4331 
Q 3641 3997 3641 3322 
Q 3641 2881 3436 2590 
Q 3231 2300 2841 2188 
z
M 1259 4147 
L 1259 2491 
L 2053 2491 
Q 2509 2491 2742 2702 
Q 2975 2913 2975 3322 
Q 2975 3731 2742 3939 
Q 2509 4147 2053 4147 
L 1259 4147 
z
" id="DejaVuSans-52" transform="scale(0.015625)"/>
        <path d="M 628 4666 
L 3309 4666 
L 3309 4134 
L 1259 4134 
L 1259 2759 
L 3109 2759 
L 3109 2228 
L 1259 2228 
L 1259 0 
L 628 0 
L 628 4666 
z
" id="DejaVuSans-46" transform="scale(0.015625)"/>
        <path d="M 628 4666 
L 1569 4666 
L 2759 1491 
L 3956 4666 
L 4897 4666 
L 4897 0 
L 4281 0 
L 4281 4097 
L 3078 897 
L 2444 897 
L 1241 4097 
L 1241 0 
L 628 0 
L 628 4666 
z
" id="DejaVuSans-4d" transform="scale(0.015625)"/>
        <path d="M 1259 4147 
L 1259 2394 
L 2053 2394 
Q 2494 2394 2734 2622 
Q 2975 2850 2975 3272 
Q 2975 3691 2734 3919 
Q 2494 4147 2053 4147 
L 1259 4147 
z
M 628 4666 
L 2053 4666 
Q 2838 4666 3239 4311 
Q 3641 3956 3641 3272 
Q 3641 2581 3239 2228 
Q 2838 1875 2053 1875 
L 1259 1875 
L 1259 0 
L 628 0 
L 628 4666 
z
" id="DejaVuSans-50" transform="scale(0.015625)"/>
        <path d="M 4122 4306 
L 4122 3641 
Q 3803 3938 3442 4084 
Q 3081 4231 2675 4231 
Q 1875 4231 1450 3742 
Q 1025 3253 1025 2328 
Q 1025 1406 1450 917 
Q 1875 428 2675 428 
Q 3081 428 3442 575 
Q 3803 722 4122 1019 
L 4122 359 
Q 3791 134 3420 21 
Q 3050 -91 2638 -91 
Q 1578 -91 968 557 
Q 359 1206 359 2328 
Q 359 3453 968 4101 
Q 1578 4750 2638 4750 
Q 3056 4750 3426 4639 
Q 3797 4528 4122 4306 
z
" id="DejaVuSans-43" transform="scale(0.015625)"/>
       </defs>
       <use xlink:href="#DejaVuSans-52"/>
       <use x="69.482422" xlink:href="#DejaVuSans-49"/>
       <use x="98.974609" xlink:href="#DejaVuSans-46"/>
       <use x="147.369141" xlink:href="#DejaVuSans-41"/>
       <use x="215.777344" xlink:href="#DejaVuSans-4d"/>
       <use x="302.056641" xlink:href="#DejaVuSans-50"/>
       <use x="362.359375" xlink:href="#DejaVuSans-49"/>
       <use x="391.851562" xlink:href="#DejaVuSans-43"/>
       <use x="461.675781" xlink:href="#DejaVuSans-49"/>
       <use x="491.167969" xlink:href="#DejaVuSans-4e"/>
      </g>
     </g>
    </g>
    <g id="ytick_11">
     <g id="line2d_13">
      <path clip-path="url(#p9ce8625aeb)" d="M 202.732468 329.865399 
L 374.4 329.865399 
" style="fill:none;stroke:#ffffff;stroke-linecap:square;stroke-width:0.8;"/>
     </g>
     <g id="line2d_14"/>
     <g id="text_3">
      <!-- ETHAMBUTOL -->
      <g style="fill:#555555;" transform="translate(130.085593 333.664618)scale(0.1 -0.1)">
       <defs>
        <path d="M 628 4666 
L 3578 4666 
L 3578 4134 
L 1259 4134 
L 1259 2753 
L 3481 2753 
L 3481 2222 
L 1259 2222 
L 1259 531 
L 3634 531 
L 3634 0 
L 628 0 
L 628 4666 
z
" id="DejaVuSans-45" transform="scale(0.015625)"/>
        <path d="M -19 4666 
L 3928 4666 
L 3928 4134 
L 2272 4134 
L 2272 0 
L 1638 0 
L 1638 4134 
L -19 4134 
L -19 4666 
z
" id="DejaVuSans-54" transform="scale(0.015625)"/>
        <path d="M 628 4666 
L 1259 4666 
L 1259 2753 
L 3553 2753 
L 3553 4666 
L 4184 4666 
L 4184 0 
L 3553 0 
L 3553 2222 
L 1259 2222 
L 1259 0 
L 628 0 
L 628 4666 
z
" id="DejaVuSans-48" transform="scale(0.015625)"/>
        <path d="M 1259 2228 
L 1259 519 
L 2272 519 
Q 2781 519 3026 730 
Q 3272 941 3272 1375 
Q 3272 1813 3026 2020 
Q 2781 2228 2272 2228 
L 1259 2228 
z
M 1259 4147 
L 1259 2741 
L 2194 2741 
Q 2656 2741 2882 2914 
Q 3109 3088 3109 3444 
Q 3109 3797 2882 3972 
Q 2656 4147 2194 4147 
L 1259 4147 
z
M 628 4666 
L 2241 4666 
Q 2963 4666 3353 4366 
Q 3744 4066 3744 3513 
Q 3744 3084 3544 2831 
Q 3344 2578 2956 2516 
Q 3422 2416 3680 2098 
Q 3938 1781 3938 1306 
Q 3938 681 3513 340 
Q 3088 0 2303 0 
L 628 0 
L 628 4666 
z
" id="DejaVuSans-42" transform="scale(0.015625)"/>
        <path d="M 556 4666 
L 1191 4666 
L 1191 1831 
Q 1191 1081 1462 751 
Q 1734 422 2344 422 
Q 2950 422 3222 751 
Q 3494 1081 3494 1831 
L 3494 4666 
L 4128 4666 
L 4128 1753 
Q 4128 841 3676 375 
Q 3225 -91 2344 -91 
Q 1459 -91 1007 375 
Q 556 841 556 1753 
L 556 4666 
z
" id="DejaVuSans-55" transform="scale(0.015625)"/>
        <path d="M 628 4666 
L 1259 4666 
L 1259 531 
L 3531 531 
L 3531 0 
L 628 0 
L 628 4666 
z
" id="DejaVuSans-4c" transform="scale(0.015625)"/>
       </defs>
       <use xlink:href="#DejaVuSans-45"/>
       <use x="63.183594" xlink:href="#DejaVuSans-54"/>
       <use x="124.267578" xlink:href="#DejaVuSans-48"/>
       <use x="199.462891" xlink:href="#DejaVuSans-41"/>
       <use x="267.871094" xlink:href="#DejaVuSans-4d"/>
       <use x="354.150391" xlink:href="#DejaVuSans-42"/>
       <use x="422.753906" xlink:href="#DejaVuSans-55"/>
       <use x="495.947266" xlink:href="#DejaVuSans-54"/>
       <use x="557.03125" xlink:href="#DejaVuSans-4f"/>
       <use x="635.742188" xlink:href="#DejaVuSans-4c"/>
      </g>
     </g>
    </g>
    <g id="ytick_12">
     <g id="line2d_15">
      <path clip-path="url(#p9ce8625aeb)" d="M 202.732468 307.534905 
L 374.4 307.534905 
" style="fill:none;stroke:#ffffff;stroke-linecap:square;stroke-width:0.8;"/>
     </g>
     <g id="line2d_16"/>
     <g id="text_4">
      <!-- STREPTOMYCIN -->
      <g style="fill:#555555;" transform="translate(121.899655 311.334123)scale(0.1 -0.1)">
       <defs>
        <path d="M -13 4666 
L 666 4666 
L 1959 2747 
L 3244 4666 
L 3922 4666 
L 2272 2222 
L 2272 0 
L 1638 0 
L 1638 2222 
L -13 4666 
z
" id="DejaVuSans-59" transform="scale(0.015625)"/>
       </defs>
       <use xlink:href="#DejaVuSans-53"/>
       <use x="63.476562" xlink:href="#DejaVuSans-54"/>
       <use x="124.560547" xlink:href="#DejaVuSans-52"/>
       <use x="194.042969" xlink:href="#DejaVuSans-45"/>
       <use x="257.226562" xlink:href="#DejaVuSans-50"/>
       <use x="317.529297" xlink:href="#DejaVuSans-54"/>
       <use x="378.613281" xlink:href="#DejaVuSans-4f"/>
       <use x="457.324219" xlink:href="#DejaVuSans-4d"/>
       <use x="543.603516" xlink:href="#DejaVuSans-59"/>
       <use x="599.1875" xlink:href="#DejaVuSans-43"/>
       <use x="669.011719" xlink:href="#DejaVuSans-49"/>
       <use x="698.503906" xlink:href="#DejaVuSans-4e"/>
      </g>
     </g>
    </g>
    <g id="ytick_13">
     <g id="line2d_17">
      <path clip-path="url(#p9ce8625aeb)" d="M 202.732468 285.20441 
L 374.4 285.20441 
" style="fill:none;stroke:#ffffff;stroke-linecap:square;stroke-width:0.8;"/>
     </g>
     <g id="line2d_18"/>
     <g id="text_5">
      <!-- AMIKACIN -->
      <g style="fill:#555555;" transform="translate(150.351218 289.003629)scale(0.1 -0.1)">
       <defs>
        <path d="M 628 4666 
L 1259 4666 
L 1259 2694 
L 3353 4666 
L 4166 4666 
L 1850 2491 
L 4331 0 
L 3500 0 
L 1259 2247 
L 1259 0 
L 628 0 
L 628 4666 
z
" id="DejaVuSans-4b" transform="scale(0.015625)"/>
       </defs>
       <use xlink:href="#DejaVuSans-41"/>
       <use x="68.408203" xlink:href="#DejaVuSans-4d"/>
       <use x="154.6875" xlink:href="#DejaVuSans-49"/>
       <use x="184.179688" xlink:href="#DejaVuSans-4b"/>
       <use x="248.005859" xlink:href="#DejaVuSans-41"/>
       <use x="314.664062" xlink:href="#DejaVuSans-43"/>
       <use x="384.488281" xlink:href="#DejaVuSans-49"/>
       <use x="413.980469" xlink:href="#DejaVuSans-4e"/>
      </g>
     </g>
    </g>
    <g id="ytick_14">
     <g id="line2d_19">
      <path clip-path="url(#p9ce8625aeb)" d="M 202.732468 262.873916 
L 374.4 262.873916 
" style="fill:none;stroke:#ffffff;stroke-linecap:square;stroke-width:0.8;"/>
     </g>
     <g id="line2d_20"/>
     <g id="text_6">
      <!-- OFLOXACIN -->
      <g style="fill:#555555;" transform="translate(142.235593 266.673134)scale(0.1 -0.1)">
       <defs>
        <path d="M 403 4666 
L 1081 4666 
L 2241 2931 
L 3406 4666 
L 4084 4666 
L 2584 2425 
L 4184 0 
L 3506 0 
L 2194 1984 
L 872 0 
L 191 0 
L 1856 2491 
L 403 4666 
z
" id="DejaVuSans-58" transform="scale(0.015625)"/>
       </defs>
       <use xlink:href="#DejaVuSans-4f"/>
       <use x="78.710938" xlink:href="#DejaVuSans-46"/>
       <use x="136.230469" xlink:href="#DejaVuSans-4c"/>
       <use x="188.318359" xlink:href="#DejaVuSans-4f"/>
       <use x="260.654297" xlink:href="#DejaVuSans-58"/>
       <use x="329.160156" xlink:href="#DejaVuSans-41"/>
       <use x="395.818359" xlink:href="#DejaVuSans-43"/>
       <use x="465.642578" xlink:href="#DejaVuSans-49"/>
       <use x="495.134766" xlink:href="#DejaVuSans-4e"/>
      </g>
     </g>
    </g>
    <g id="ytick_15">
     <g id="line2d_21">
      <path clip-path="url(#p9ce8625aeb)" d="M 202.732468 240.543421 
L 374.4 240.543421 
" style="fill:none;stroke:#ffffff;stroke-linecap:square;stroke-width:0.8;"/>
     </g>
     <g id="line2d_22"/>
     <g id="text_7">
      <!-- CAPREOMYCIN -->
      <g style="fill:#555555;" transform="translate(126.64028 244.34264)scale(0.1 -0.1)">
       <use xlink:href="#DejaVuSans-43"/>
       <use x="69.824219" xlink:href="#DejaVuSans-41"/>
       <use x="138.232422" xlink:href="#DejaVuSans-50"/>
       <use x="198.535156" xlink:href="#DejaVuSans-52"/>
       <use x="268.017578" xlink:href="#DejaVuSans-45"/>
       <use x="331.201172" xlink:href="#DejaVuSans-4f"/>
       <use x="409.912109" xlink:href="#DejaVuSans-4d"/>
       <use x="496.191406" xlink:href="#DejaVuSans-59"/>
       <use x="551.775391" xlink:href="#DejaVuSans-43"/>
       <use x="621.599609" xlink:href="#DejaVuSans-49"/>
       <use x="651.091797" xlink:href="#DejaVuSans-4e"/>
      </g>
     </g>
    </g>
    <g id="ytick_16">
     <g id="line2d_23">
      <path clip-path="url(#p9ce8625aeb)" d="M 202.732468 218.212927 
L 374.4 218.212927 
" style="fill:none;stroke:#ffffff;stroke-linecap:square;stroke-width:0.8;"/>
     </g>
     <g id="line2d_24"/>
     <g id="text_8">
      <!-- KANAMYCIN -->
      <g style="fill:#555555;" transform="translate(140.087155 222.012145)scale(0.1 -0.1)">
       <use xlink:href="#DejaVuSans-4b"/>
       <use x="63.826172" xlink:href="#DejaVuSans-41"/>
       <use x="132.234375" xlink:href="#DejaVuSans-4e"/>
       <use x="207.039062" xlink:href="#DejaVuSans-41"/>
       <use x="275.447266" xlink:href="#DejaVuSans-4d"/>
       <use x="361.726562" xlink:href="#DejaVuSans-59"/>
       <use x="417.310547" xlink:href="#DejaVuSans-43"/>
       <use x="487.134766" xlink:href="#DejaVuSans-49"/>
       <use x="516.626953" xlink:href="#DejaVuSans-4e"/>
      </g>
     </g>
    </g>
   </g>
   <g id="PathCollection_1">
    <defs>
     <path d="M 0 5.6 
C 1.485137 5.6 2.909647 5.009949 3.959798 3.959798 
C 5.009949 2.909647 5.6 1.485137 5.6 -0 
C 5.6 -1.485137 5.009949 -2.909647 3.959798 -3.959798 
C 2.909647 -5.009949 1.485137 -5.6 0 -5.6 
C -1.485137 -5.6 -2.909647 -5.009949 -3.959798 -3.959798 
C -5.009949 -2.909647 -5.6 -1.485137 -5.6 0 
C -5.6 1.485137 -5.009949 2.909647 -3.959798 3.959798 
C -2.909647 5.009949 -1.485137 5.6 0 5.6 
z
" id="C0_0_7c433941d1"/>
    </defs>
    <g clip-path="url(#p9ce8625aeb)">
     <use x="214.994434" xlink:href="#C0_0_7c433941d1" y="374.526388"/>
    </g>
    <g clip-path="url(#p9ce8625aeb)">
     <use x="214.994434" xlink:href="#C0_0_7c433941d1" y="352.195894"/>
    </g>
    <g clip-path="url(#p9ce8625aeb)">
     <use x="214.994434" xlink:href="#C0_0_7c433941d1" y="329.865399"/>
    </g>
    <g clip-path="url(#p9ce8625aeb)">
     <use x="214.994434" xlink:href="#C0_0_7c433941d1" y="307.534905"/>
    </g>
    <g clip-path="url(#p9ce8625aeb)">
     <use x="214.994434" xlink:href="#C0_0_7c433941d1" y="285.20441"/>
    </g>
    <g clip-path="url(#p9ce8625aeb)">
     <use x="214.994434" xlink:href="#C0_0_7c433941d1" y="262.873916"/>
    </g>
    <g clip-path="url(#p9ce8625aeb)">
     <use x="214.994434" xlink:href="#C0_0_7c433941d1" y="240.543421"/>
    </g>
    <g clip-path="url(#p9ce8625aeb)">
     <use x="214.994434" xlink:href="#C0_0_7c433941d1" y="218.212927"/>
    </g>
    <g clip-path="url(#p9ce8625aeb)">
     <use x="239.518367" xlink:href="#C0_0_7c433941d1" y="374.526388"/>
    </g>
    <g clip-path="url(#p9ce8625aeb)">
     <use x="239.518367" xlink:href="#C0_0_7c433941d1" y="352.195894"/>
    </g>
    <g clip-path="url(#p9ce8625aeb)">
     <use x="239.518367" xlink:href="#C0_0_7c433941d1" y="329.865399"/>
    </g>
    <g clip-path="url(#p9ce8625aeb)">
     <use x="239.518367" xlink:href="#C0_0_7c433941d1" y="307.534905"/>
    </g>
    <g clip-path="url(#p9ce8625aeb)">
     <use style="fill:#d3d3d3;" x="239.518367" xlink:href="#C0_0_7c433941d1" y="285.20441"/>
    </g>
    <g clip-path="url(#p9ce8625aeb)">
     <use style="fill:#d3d3d3;" x="239.518367" xlink:href="#C0_0_7c433941d1" y="262.873916"/>
    </g>
    <g clip-path="url(#p9ce8625aeb)">
     <use style="fill:#d3d3d3;" x="239.518367" xlink:href="#C0_0_7c433941d1" y="240.543421"/>
    </g>
    <g clip-path="url(#p9ce8625aeb)">
     <use style="fill:#d3d3d3;" x="239.518367" xlink:href="#C0_0_7c433941d1" y="218.212927"/>
    </g>
    <g clip-path="url(#p9ce8625aeb)">
     <use style="fill:#d3d3d3;" x="264.042301" xlink:href="#C0_0_7c433941d1" y="374.526388"/>
    </g>
    <g clip-path="url(#p9ce8625aeb)">
     <use style="fill:#d3d3d3;" x="264.042301" xlink:href="#C0_0_7c433941d1" y="352.195894"/>
    </g>
    <g clip-path="url(#p9ce8625aeb)">
     <use style="fill:#d3d3d3;" x="264.042301" xlink:href="#C0_0_7c433941d1" y="329.865399"/>
    </g>
    <g clip-path="url(#p9ce8625aeb)">
     <use style="fill:#d3d3d3;" x="264.042301" xlink:href="#C0_0_7c433941d1" y="307.534905"/>
    </g>
    <g clip-path="url(#p9ce8625aeb)">
     <use x="264.042301" xlink:href="#C0_0_7c433941d1" y="285.20441"/>
    </g>
    <g clip-path="url(#p9ce8625aeb)">
     <use x="264.042301" xlink:href="#C0_0_7c433941d1" y="262.873916"/>
    </g>
    <g clip-path="url(#p9ce8625aeb)">
     <use style="fill:#d3d3d3;" x="264.042301" xlink:href="#C0_0_7c433941d1" y="240.543421"/>
    </g>
    <g clip-path="url(#p9ce8625aeb)">
     <use style="fill:#d3d3d3;" x="264.042301" xlink:href="#C0_0_7c433941d1" y="218.212927"/>
    </g>
    <g clip-path="url(#p9ce8625aeb)">
     <use x="288.566234" xlink:href="#C0_0_7c433941d1" y="374.526388"/>
    </g>
    <g clip-path="url(#p9ce8625aeb)">
     <use style="fill:#d3d3d3;" x="288.566234" xlink:href="#C0_0_7c433941d1" y="352.195894"/>
    </g>
    <g clip-path="url(#p9ce8625aeb)">
     <use style="fill:#d3d3d3;" x="288.566234" xlink:href="#C0_0_7c433941d1" y="329.865399"/>
    </g>
    <g clip-path="url(#p9ce8625aeb)">
     <use style="fill:#d3d3d3;" x="288.566234" xlink:href="#C0_0_7c433941d1" y="307.534905"/>
    </g>
    <g clip-path="url(#p9ce8625aeb)">
     <use x="288.566234" xlink:href="#C0_0_7c433941d1" y="285.20441"/>
    </g>
    <g clip-path="url(#p9ce8625aeb)">
     <use x="288.566234" xlink:href="#C0_0_7c433941d1" y="262.873916"/>
    </g>
    <g clip-path="url(#p9ce8625aeb)">
     <use style="fill:#d3d3d3;" x="288.566234" xlink:href="#C0_0_7c433941d1" y="240.543421"/>
    </g>
    <g clip-path="url(#p9ce8625aeb)">
     <use style="fill:#d3d3d3;" x="288.566234" xlink:href="#C0_0_7c433941d1" y="218.212927"/>
    </g>
    <g clip-path="url(#p9ce8625aeb)">
     <use style="fill:#d3d3d3;" x="313.090167" xlink:href="#C0_0_7c433941d1" y="374.526388"/>
    </g>
    <g clip-path="url(#p9ce8625aeb)">
     <use style="fill:#d3d3d3;" x="313.090167" xlink:href="#C0_0_7c433941d1" y="352.195894"/>
    </g>
    <g clip-path="url(#p9ce8625aeb)">
     <use style="fill:#d3d3d3;" x="313.090167" xlink:href="#C0_0_7c433941d1" y="329.865399"/>
    </g>
    <g clip-path="url(#p9ce8625aeb)">
     <use style="fill:#d3d3d3;" x="313.090167" xlink:href="#C0_0_7c433941d1" y="307.534905"/>
    </g>
    <g clip-path="url(#p9ce8625aeb)">
     <use x="313.090167" xlink:href="#C0_0_7c433941d1" y="285.20441"/>
    </g>
    <g clip-path="url(#p9ce8625aeb)">
     <use style="fill:#d3d3d3;" x="313.090167" xlink:href="#C0_0_7c433941d1" y="262.873916"/>
    </g>
    <g clip-path="url(#p9ce8625aeb)">
     <use style="fill:#d3d3d3;" x="313.090167" xlink:href="#C0_0_7c433941d1" y="240.543421"/>
    </g>
    <g clip-path="url(#p9ce8625aeb)">
     <use style="fill:#d3d3d3;" x="313.090167" xlink:href="#C0_0_7c433941d1" y="218.212927"/>
    </g>
    <g clip-path="url(#p9ce8625aeb)">
     <use x="337.6141" xlink:href="#C0_0_7c433941d1" y="374.526388"/>
    </g>
    <g clip-path="url(#p9ce8625aeb)">
     <use x="337.6141" xlink:href="#C0_0_7c433941d1" y="352.195894"/>
    </g>
    <g clip-path="url(#p9ce8625aeb)">
     <use x="337.6141" xlink:href="#C0_0_7c433941d1" y="329.865399"/>
    </g>
    <g clip-path="url(#p9ce8625aeb)">
     <use style="fill:#d3d3d3;" x="337.6141" xlink:href="#C0_0_7c433941d1" y="307.534905"/>
    </g>
    <g clip-path="url(#p9ce8625aeb)">
     <use x="337.6141" xlink:href="#C0_0_7c433941d1" y="285.20441"/>
    </g>
    <g clip-path="url(#p9ce8625aeb)">
     <use style="fill:#d3d3d3;" x="337.6141" xlink:href="#C0_0_7c433941d1" y="262.873916"/>
    </g>
    <g clip-path="url(#p9ce8625aeb)">
     <use x="337.6141" xlink:href="#C0_0_7c433941d1" y="240.543421"/>
    </g>
    <g clip-path="url(#p9ce8625aeb)">
     <use x="337.6141" xlink:href="#C0_0_7c433941d1" y="218.212927"/>
    </g>
    <g clip-path="url(#p9ce8625aeb)">
     <use x="362.138033" xlink:href="#C0_0_7c433941d1" y="374.526388"/>
    </g>
    <g clip-path="url(#p9ce8625aeb)">
     <use x="362.138033" xlink:href="#C0_0_7c433941d1" y="352.195894"/>
    </g>
    <g clip-path="url(#p9ce8625aeb)">
     <use style="fill:#d3d3d3;" x="362.138033" xlink:href="#C0_0_7c433941d1" y="329.865399"/>
    </g>
    <g clip-path="url(#p9ce8625aeb)">
     <use x="362.138033" xlink:href="#C0_0_7c433941d1" y="307.534905"/>
    </g>
    <g clip-path="url(#p9ce8625aeb)">
     <use x="362.138033" xlink:href="#C0_0_7c433941d1" y="285.20441"/>
    </g>
    <g clip-path="url(#p9ce8625aeb)">
     <use x="362.138033" xlink:href="#C0_0_7c433941d1" y="262.873916"/>
    </g>
    <g clip-path="url(#p9ce8625aeb)">
     <use x="362.138033" xlink:href="#C0_0_7c433941d1" y="240.543421"/>
    </g>
    <g clip-path="url(#p9ce8625aeb)">
     <use x="362.138033" xlink:href="#C0_0_7c433941d1" y="218.212927"/>
    </g>
   </g>
   <g id="LineCollection_1">
    <path clip-path="url(#p9ce8625aeb)" d="M 214.994434 374.526388 
L 214.994434 218.212927 
" style="fill:none;stroke:#000000;stroke-width:2;"/>
    <path clip-path="url(#p9ce8625aeb)" d="M 239.518367 374.526388 
L 239.518367 307.534905 
" style="fill:none;stroke:#000000;stroke-width:2;"/>
    <path clip-path="url(#p9ce8625aeb)" d="M 264.042301 285.20441 
L 264.042301 262.873916 
" style="fill:none;stroke:#000000;stroke-width:2;"/>
    <path clip-path="url(#p9ce8625aeb)" d="M 288.566234 374.526388 
L 288.566234 262.873916 
" style="fill:none;stroke:#000000;stroke-width:2;"/>
    <path clip-path="url(#p9ce8625aeb)" d="M 313.090167 285.20441 
L 313.090167 285.20441 
" style="fill:none;stroke:#000000;stroke-width:2;"/>
    <path clip-path="url(#p9ce8625aeb)" d="M 337.6141 374.526388 
L 337.6141 218.212927 
" style="fill:none;stroke:#000000;stroke-width:2;"/>
    <path clip-path="url(#p9ce8625aeb)" d="M 362.138033 374.526388 
L 362.138033 218.212927 
" style="fill:none;stroke:#000000;stroke-width:2;"/>
   </g>
  </g>
  <g id="axes_4">
   <g id="matplotlib.axis_4">
    <g id="xtick_1">
     <g id="line2d_25">
      <path clip-path="url(#p7e803b9235)" d="M 98.057143 392 
L 98.057143 204.088889 
" style="fill:none;stroke:#ffffff;stroke-linecap:square;stroke-width:0.8;"/>
     </g>
     <g id="line2d_26">
      <defs>
       <path d="M 0 0 
L 0 3.5 
" id="m92587e06f6" style="stroke:#555555;stroke-width:0.8;"/>
      </defs>
      <g>
       <use style="fill:#555555;stroke:#555555;stroke-width:0.8;" x="98.057143" xlink:href="#m92587e06f6" y="392"/>
      </g>
     </g>
     <g id="text_9">
      <!-- 0 -->
      <g style="fill:#555555;" transform="translate(94.875893 406.598437)scale(0.1 -0.1)">
       <defs>
        <path d="M 2034 4250 
Q 1547 4250 1301 3770 
Q 1056 3291 1056 2328 
Q 1056 1369 1301 889 
Q 1547 409 2034 409 
Q 2525 409 2770 889 
Q 3016 1369 3016 2328 
Q 3016 3291 2770 3770 
Q 2525 4250 2034 4250 
z
M 2034 4750 
Q 2819 4750 3233 4129 
Q 3647 3509 3647 2328 
Q 3647 1150 3233 529 
Q 2819 -91 2034 -91 
Q 1250 -91 836 529 
Q 422 1150 422 2328 
Q 422 3509 836 4129 
Q 1250 4750 2034 4750 
z
" id="DejaVuSans-30" transform="scale(0.015625)"/>
       </defs>
       <use xlink:href="#DejaVuSans-30"/>
      </g>
     </g>
    </g>
    <g id="xtick_2">
     <g id="line2d_27">
      <path clip-path="url(#p7e803b9235)" d="M 75.028571 392 
L 75.028571 204.088889 
" style="fill:none;stroke:#ffffff;stroke-linecap:square;stroke-width:0.8;"/>
     </g>
     <g id="line2d_28">
      <g>
       <use style="fill:#555555;stroke:#555555;stroke-width:0.8;" x="75.028571" xlink:href="#m92587e06f6" y="392"/>
      </g>
     </g>
     <g id="text_10">
      <!-- 50 -->
      <g style="fill:#555555;" transform="translate(68.666071 406.598437)scale(0.1 -0.1)">
       <defs>
        <path d="M 691 4666 
L 3169 4666 
L 3169 4134 
L 1269 4134 
L 1269 2991 
Q 1406 3038 1543 3061 
Q 1681 3084 1819 3084 
Q 2600 3084 3056 2656 
Q 3513 2228 3513 1497 
Q 3513 744 3044 326 
Q 2575 -91 1722 -91 
Q 1428 -91 1123 -41 
Q 819 9 494 109 
L 494 744 
Q 775 591 1075 516 
Q 1375 441 1709 441 
Q 2250 441 2565 725 
Q 2881 1009 2881 1497 
Q 2881 1984 2565 2268 
Q 2250 2553 1709 2553 
Q 1456 2553 1204 2497 
Q 953 2441 691 2322 
L 691 4666 
z
" id="DejaVuSans-35" transform="scale(0.015625)"/>
       </defs>
       <use xlink:href="#DejaVuSans-35"/>
       <use x="63.623047" xlink:href="#DejaVuSans-30"/>
      </g>
     </g>
    </g>
    <g id="xtick_3">
     <g id="line2d_29">
      <path clip-path="url(#p7e803b9235)" d="M 52 392 
L 52 204.088889 
" style="fill:none;stroke:#ffffff;stroke-linecap:square;stroke-width:0.8;"/>
     </g>
     <g id="line2d_30">
      <g>
       <use style="fill:#555555;stroke:#555555;stroke-width:0.8;" x="52" xlink:href="#m92587e06f6" y="392"/>
      </g>
     </g>
     <g id="text_11">
      <!-- 100 -->
      <g style="fill:#555555;" transform="translate(42.45625 406.598437)scale(0.1 -0.1)">
       <defs>
        <path d="M 794 531 
L 1825 531 
L 1825 4091 
L 703 3866 
L 703 4441 
L 1819 4666 
L 2450 4666 
L 2450 531 
L 3481 531 
L 3481 0 
L 794 0 
L 794 531 
z
" id="DejaVuSans-31" transform="scale(0.015625)"/>
       </defs>
       <use xlink:href="#DejaVuSans-31"/>
       <use x="63.623047" xlink:href="#DejaVuSans-30"/>
       <use x="127.246094" xlink:href="#DejaVuSans-30"/>
      </g>
     </g>
    </g>
   </g>
   <g id="patch_6">
    <path clip-path="url(#p7e803b9235)" d="M 98.057143 380.109012 
L 52.460571 380.109012 
L 52.460571 368.943764 
L 98.057143 368.943764 
z
"/>
   </g>
   <g id="patch_7">
    <path clip-path="url(#p7e803b9235)" d="M 98.057143 357.778517 
L 55.684571 357.778517 
L 55.684571 346.61327 
L 98.057143 346.61327 
z
"/>
   </g>
   <g id="patch_8">
    <path clip-path="url(#p7e803b9235)" d="M 98.057143 335.448023 
L 56.145143 335.448023 
L 56.145143 324.282775 
L 98.057143 324.282775 
z
"/>
   </g>
   <g id="patch_9">
    <path clip-path="url(#p7e803b9235)" d="M 98.057143 313.117528 
L 56.145143 313.117528 
L 56.145143 301.952281 
L 98.057143 301.952281 
z
"/>
   </g>
   <g id="patch_10">
    <path clip-path="url(#p7e803b9235)" d="M 98.057143 290.787034 
L 57.066286 290.787034 
L 57.066286 279.621786 
L 98.057143 279.621786 
z
"/>
   </g>
   <g id="patch_11">
    <path clip-path="url(#p7e803b9235)" d="M 98.057143 268.456539 
L 57.987429 268.456539 
L 57.987429 257.291292 
L 98.057143 257.291292 
z
"/>
   </g>
   <g id="patch_12">
    <path clip-path="url(#p7e803b9235)" d="M 98.057143 246.126045 
L 74.107429 246.126045 
L 74.107429 234.960798 
L 98.057143 234.960798 
z
"/>
   </g>
   <g id="patch_13">
    <path clip-path="url(#p7e803b9235)" d="M 98.057143 223.79555 
L 74.107429 223.79555 
L 74.107429 212.630303 
L 98.057143 212.630303 
z
"/>
   </g>
   <g id="patch_14">
    <path d="M 52 392 
L 98.057143 392 
" style="fill:none;stroke:#ffffff;stroke-linecap:square;stroke-linejoin:miter;"/>
   </g>
   <g id="text_12">
    <!-- 99 -->
    <g transform="translate(39.256807 377.285763)scale(0.1 -0.1)">
     <defs>
      <path d="M 703 97 
L 703 672 
Q 941 559 1184 500 
Q 1428 441 1663 441 
Q 2288 441 2617 861 
Q 2947 1281 2994 2138 
Q 2813 1869 2534 1725 
Q 2256 1581 1919 1581 
Q 1219 1581 811 2004 
Q 403 2428 403 3163 
Q 403 3881 828 4315 
Q 1253 4750 1959 4750 
Q 2769 4750 3195 4129 
Q 3622 3509 3622 2328 
Q 3622 1225 3098 567 
Q 2575 -91 1691 -91 
Q 1453 -91 1209 -44 
Q 966 3 703 97 
z
M 1959 2075 
Q 2384 2075 2632 2365 
Q 2881 2656 2881 3163 
Q 2881 3666 2632 3958 
Q 2384 4250 1959 4250 
Q 1534 4250 1286 3958 
Q 1038 3666 1038 3163 
Q 1038 2656 1286 2365 
Q 1534 2075 1959 2075 
z
" id="DejaVuSans-39" transform="scale(0.015625)"/>
     </defs>
     <use xlink:href="#DejaVuSans-39"/>
     <use x="63.623047" xlink:href="#DejaVuSans-39"/>
    </g>
   </g>
   <g id="text_13">
    <!-- 92 -->
    <g transform="translate(42.480807 354.955269)scale(0.1 -0.1)">
     <defs>
      <path d="M 1228 531 
L 3431 531 
L 3431 0 
L 469 0 
L 469 531 
Q 828 903 1448 1529 
Q 2069 2156 2228 2338 
Q 2531 2678 2651 2914 
Q 2772 3150 2772 3378 
Q 2772 3750 2511 3984 
Q 2250 4219 1831 4219 
Q 1534 4219 1204 4116 
Q 875 4013 500 3803 
L 500 4441 
Q 881 4594 1212 4672 
Q 1544 4750 1819 4750 
Q 2544 4750 2975 4387 
Q 3406 4025 3406 3419 
Q 3406 3131 3298 2873 
Q 3191 2616 2906 2266 
Q 2828 2175 2409 1742 
Q 1991 1309 1228 531 
z
" id="DejaVuSans-32" transform="scale(0.015625)"/>
     </defs>
     <use xlink:href="#DejaVuSans-39"/>
     <use x="63.623047" xlink:href="#DejaVuSans-32"/>
    </g>
   </g>
   <g id="text_14">
    <!-- 91 -->
    <g transform="translate(42.941379 332.624774)scale(0.1 -0.1)">
     <use xlink:href="#DejaVuSans-39"/>
     <use x="63.623047" xlink:href="#DejaVuSans-31"/>
    </g>
   </g>
   <g id="text_15">
    <!-- 91 -->
    <g transform="translate(42.941379 310.29428)scale(0.1 -0.1)">
     <use xlink:href="#DejaVuSans-39"/>
     <use x="63.623047" xlink:href="#DejaVuSans-31"/>
    </g>
   </g>
   <g id="text_16">
    <!-- 89 -->
    <g transform="translate(43.862522 287.963785)scale(0.1 -0.1)">
     <defs>
      <path d="M 2034 2216 
Q 1584 2216 1326 1975 
Q 1069 1734 1069 1313 
Q 1069 891 1326 650 
Q 1584 409 2034 409 
Q 2484 409 2743 651 
Q 3003 894 3003 1313 
Q 3003 1734 2745 1975 
Q 2488 2216 2034 2216 
z
M 1403 2484 
Q 997 2584 770 2862 
Q 544 3141 544 3541 
Q 544 4100 942 4425 
Q 1341 4750 2034 4750 
Q 2731 4750 3128 4425 
Q 3525 4100 3525 3541 
Q 3525 3141 3298 2862 
Q 3072 2584 2669 2484 
Q 3125 2378 3379 2068 
Q 3634 1759 3634 1313 
Q 3634 634 3220 271 
Q 2806 -91 2034 -91 
Q 1263 -91 848 271 
Q 434 634 434 1313 
Q 434 1759 690 2068 
Q 947 2378 1403 2484 
z
M 1172 3481 
Q 1172 3119 1398 2916 
Q 1625 2713 2034 2713 
Q 2441 2713 2670 2916 
Q 2900 3119 2900 3481 
Q 2900 3844 2670 4047 
Q 2441 4250 2034 4250 
Q 1625 4250 1398 4047 
Q 1172 3844 1172 3481 
z
" id="DejaVuSans-38" transform="scale(0.015625)"/>
     </defs>
     <use xlink:href="#DejaVuSans-38"/>
     <use x="63.623047" xlink:href="#DejaVuSans-39"/>
    </g>
   </g>
   <g id="text_17">
    <!-- 87 -->
    <g transform="translate(44.783665 265.633291)scale(0.1 -0.1)">
     <defs>
      <path d="M 525 4666 
L 3525 4666 
L 3525 4397 
L 1831 0 
L 1172 0 
L 2766 4134 
L 525 4134 
L 525 4666 
z
" id="DejaVuSans-37" transform="scale(0.015625)"/>
     </defs>
     <use xlink:href="#DejaVuSans-38"/>
     <use x="63.623047" xlink:href="#DejaVuSans-37"/>
    </g>
   </g>
   <g id="text_18">
    <!-- 52 -->
    <g transform="translate(60.903665 243.302796)scale(0.1 -0.1)">
     <use xlink:href="#DejaVuSans-35"/>
     <use x="63.623047" xlink:href="#DejaVuSans-32"/>
    </g>
   </g>
   <g id="text_19">
    <!-- 52 -->
    <g transform="translate(60.903665 220.972302)scale(0.1 -0.1)">
     <use xlink:href="#DejaVuSans-35"/>
     <use x="63.623047" xlink:href="#DejaVuSans-32"/>
    </g>
   </g>
  </g>
  <g id="axes_5">
   <g id="patch_15">
    <path d="M 202.732468 191.561481 
L 374.4 191.561481 
L 374.4 53.76 
L 202.732468 53.76 
z
" style="fill:#e5e5e5;"/>
   </g>
   <g id="matplotlib.axis_5">
    <g id="ytick_17">
     <g id="line2d_31">
      <path clip-path="url(#pa6d10d72c1)" d="M 202.732468 191.561481 
L 374.4 191.561481 
" style="fill:none;stroke:#ffffff;stroke-linecap:square;stroke-width:0.8;"/>
     </g>
     <g id="line2d_32">
      <defs>
       <path d="M 0 0 
L -3.5 0 
" id="m4e10022a38" style="stroke:#555555;stroke-width:0.8;"/>
      </defs>
      <g>
       <use style="fill:#555555;stroke:#555555;stroke-width:0.8;" x="202.732468" xlink:href="#m4e10022a38" y="191.561481"/>
      </g>
     </g>
     <g id="text_20">
      <!-- 0 -->
      <g style="fill:#555555;" transform="translate(189.369968 195.3607)scale(0.1 -0.1)">
       <use xlink:href="#DejaVuSans-30"/>
      </g>
     </g>
    </g>
    <g id="ytick_18">
     <g id="line2d_33">
      <path clip-path="url(#pa6d10d72c1)" d="M 202.732468 165.31358 
L 374.4 165.31358 
" style="fill:none;stroke:#ffffff;stroke-linecap:square;stroke-width:0.8;"/>
     </g>
     <g id="line2d_34">
      <g>
       <use style="fill:#555555;stroke:#555555;stroke-width:0.8;" x="202.732468" xlink:href="#m4e10022a38" y="165.31358"/>
      </g>
     </g>
     <g id="text_21">
      <!-- 10 -->
      <g style="fill:#555555;" transform="translate(183.007468 169.112799)scale(0.1 -0.1)">
       <use xlink:href="#DejaVuSans-31"/>
       <use x="63.623047" xlink:href="#DejaVuSans-30"/>
      </g>
     </g>
    </g>
    <g id="ytick_19">
     <g id="line2d_35">
      <path clip-path="url(#pa6d10d72c1)" d="M 202.732468 139.065679 
L 374.4 139.065679 
" style="fill:none;stroke:#ffffff;stroke-linecap:square;stroke-width:0.8;"/>
     </g>
     <g id="line2d_36">
      <g>
       <use style="fill:#555555;stroke:#555555;stroke-width:0.8;" x="202.732468" xlink:href="#m4e10022a38" y="139.065679"/>
      </g>
     </g>
     <g id="text_22">
      <!-- 20 -->
      <g style="fill:#555555;" transform="translate(183.007468 142.864898)scale(0.1 -0.1)">
       <use xlink:href="#DejaVuSans-32"/>
       <use x="63.623047" xlink:href="#DejaVuSans-30"/>
      </g>
     </g>
    </g>
    <g id="ytick_20">
     <g id="line2d_37">
      <path clip-path="url(#pa6d10d72c1)" d="M 202.732468 112.817778 
L 374.4 112.817778 
" style="fill:none;stroke:#ffffff;stroke-linecap:square;stroke-width:0.8;"/>
     </g>
     <g id="line2d_38">
      <g>
       <use style="fill:#555555;stroke:#555555;stroke-width:0.8;" x="202.732468" xlink:href="#m4e10022a38" y="112.817778"/>
      </g>
     </g>
     <g id="text_23">
      <!-- 30 -->
      <g style="fill:#555555;" transform="translate(183.007468 116.616997)scale(0.1 -0.1)">
       <defs>
        <path d="M 2597 2516 
Q 3050 2419 3304 2112 
Q 3559 1806 3559 1356 
Q 3559 666 3084 287 
Q 2609 -91 1734 -91 
Q 1441 -91 1130 -33 
Q 819 25 488 141 
L 488 750 
Q 750 597 1062 519 
Q 1375 441 1716 441 
Q 2309 441 2620 675 
Q 2931 909 2931 1356 
Q 2931 1769 2642 2001 
Q 2353 2234 1838 2234 
L 1294 2234 
L 1294 2753 
L 1863 2753 
Q 2328 2753 2575 2939 
Q 2822 3125 2822 3475 
Q 2822 3834 2567 4026 
Q 2313 4219 1838 4219 
Q 1578 4219 1281 4162 
Q 984 4106 628 3988 
L 628 4550 
Q 988 4650 1302 4700 
Q 1616 4750 1894 4750 
Q 2613 4750 3031 4423 
Q 3450 4097 3450 3541 
Q 3450 3153 3228 2886 
Q 3006 2619 2597 2516 
z
" id="DejaVuSans-33" transform="scale(0.015625)"/>
       </defs>
       <use xlink:href="#DejaVuSans-33"/>
       <use x="63.623047" xlink:href="#DejaVuSans-30"/>
      </g>
     </g>
    </g>
    <g id="ytick_21">
     <g id="line2d_39">
      <path clip-path="url(#pa6d10d72c1)" d="M 202.732468 86.569877 
L 374.4 86.569877 
" style="fill:none;stroke:#ffffff;stroke-linecap:square;stroke-width:0.8;"/>
     </g>
     <g id="line2d_40">
      <g>
       <use style="fill:#555555;stroke:#555555;stroke-width:0.8;" x="202.732468" xlink:href="#m4e10022a38" y="86.569877"/>
      </g>
     </g>
     <g id="text_24">
      <!-- 40 -->
      <g style="fill:#555555;" transform="translate(183.007468 90.369095)scale(0.1 -0.1)">
       <defs>
        <path d="M 2419 4116 
L 825 1625 
L 2419 1625 
L 2419 4116 
z
M 2253 4666 
L 3047 4666 
L 3047 1625 
L 3713 1625 
L 3713 1100 
L 3047 1100 
L 3047 0 
L 2419 0 
L 2419 1100 
L 313 1100 
L 313 1709 
L 2253 4666 
z
" id="DejaVuSans-34" transform="scale(0.015625)"/>
       </defs>
       <use xlink:href="#DejaVuSans-34"/>
       <use x="63.623047" xlink:href="#DejaVuSans-30"/>
      </g>
     </g>
    </g>
    <g id="ytick_22">
     <g id="line2d_41">
      <path clip-path="url(#pa6d10d72c1)" d="M 202.732468 60.321975 
L 374.4 60.321975 
" style="fill:none;stroke:#ffffff;stroke-linecap:square;stroke-width:0.8;"/>
     </g>
     <g id="line2d_42">
      <g>
       <use style="fill:#555555;stroke:#555555;stroke-width:0.8;" x="202.732468" xlink:href="#m4e10022a38" y="60.321975"/>
      </g>
     </g>
     <g id="text_25">
      <!-- 50 -->
      <g style="fill:#555555;" transform="translate(183.007468 64.121194)scale(0.1 -0.1)">
       <use xlink:href="#DejaVuSans-35"/>
       <use x="63.623047" xlink:href="#DejaVuSans-30"/>
      </g>
     </g>
    </g>
    <g id="text_26">
     <!-- count -->
     <g style="fill:#555555;" transform="translate(176.511843 139.588241)rotate(-90)scale(0.12 -0.12)">
      <defs>
       <path d="M 3122 3366 
L 3122 2828 
Q 2878 2963 2633 3030 
Q 2388 3097 2138 3097 
Q 1578 3097 1268 2742 
Q 959 2388 959 1747 
Q 959 1106 1268 751 
Q 1578 397 2138 397 
Q 2388 397 2633 464 
Q 2878 531 3122 666 
L 3122 134 
Q 2881 22 2623 -34 
Q 2366 -91 2075 -91 
Q 1284 -91 818 406 
Q 353 903 353 1747 
Q 353 2603 823 3093 
Q 1294 3584 2113 3584 
Q 2378 3584 2631 3529 
Q 2884 3475 3122 3366 
z
" id="DejaVuSans-63" transform="scale(0.015625)"/>
       <path d="M 1959 3097 
Q 1497 3097 1228 2736 
Q 959 2375 959 1747 
Q 959 1119 1226 758 
Q 1494 397 1959 397 
Q 2419 397 2687 759 
Q 2956 1122 2956 1747 
Q 2956 2369 2687 2733 
Q 2419 3097 1959 3097 
z
M 1959 3584 
Q 2709 3584 3137 3096 
Q 3566 2609 3566 1747 
Q 3566 888 3137 398 
Q 2709 -91 1959 -91 
Q 1206 -91 779 398 
Q 353 888 353 1747 
Q 353 2609 779 3096 
Q 1206 3584 1959 3584 
z
" id="DejaVuSans-6f" transform="scale(0.015625)"/>
       <path d="M 544 1381 
L 544 3500 
L 1119 3500 
L 1119 1403 
Q 1119 906 1312 657 
Q 1506 409 1894 409 
Q 2359 409 2629 706 
Q 2900 1003 2900 1516 
L 2900 3500 
L 3475 3500 
L 3475 0 
L 2900 0 
L 2900 538 
Q 2691 219 2414 64 
Q 2138 -91 1772 -91 
Q 1169 -91 856 284 
Q 544 659 544 1381 
z
M 1991 3584 
L 1991 3584 
z
" id="DejaVuSans-75" transform="scale(0.015625)"/>
       <path d="M 3513 2113 
L 3513 0 
L 2938 0 
L 2938 2094 
Q 2938 2591 2744 2837 
Q 2550 3084 2163 3084 
Q 1697 3084 1428 2787 
Q 1159 2491 1159 1978 
L 1159 0 
L 581 0 
L 581 3500 
L 1159 3500 
L 1159 2956 
Q 1366 3272 1645 3428 
Q 1925 3584 2291 3584 
Q 2894 3584 3203 3211 
Q 3513 2838 3513 2113 
z
" id="DejaVuSans-6e" transform="scale(0.015625)"/>
       <path d="M 1172 4494 
L 1172 3500 
L 2356 3500 
L 2356 3053 
L 1172 3053 
L 1172 1153 
Q 1172 725 1289 603 
Q 1406 481 1766 481 
L 2356 481 
L 2356 0 
L 1766 0 
Q 1100 0 847 248 
Q 594 497 594 1153 
L 594 3053 
L 172 3053 
L 172 3500 
L 594 3500 
L 594 4494 
L 1172 4494 
z
" id="DejaVuSans-74" transform="scale(0.015625)"/>
      </defs>
      <use xlink:href="#DejaVuSans-63"/>
      <use x="54.980469" xlink:href="#DejaVuSans-6f"/>
      <use x="116.162109" xlink:href="#DejaVuSans-75"/>
      <use x="179.541016" xlink:href="#DejaVuSans-6e"/>
      <use x="242.919922" xlink:href="#DejaVuSans-74"/>
     </g>
    </g>
   </g>
   <g id="patch_16">
    <path d="M 202.732468 191.561481 
L 202.732468 53.76 
" style="fill:none;stroke:#ffffff;stroke-linecap:square;stroke-linejoin:miter;"/>
   </g>
   <g id="text_27">
    <!-- 50 -->
    <g transform="translate(208.631934 56.864273)scale(0.1 -0.1)">
     <use xlink:href="#DejaVuSans-35"/>
     <use x="63.623047" xlink:href="#DejaVuSans-30"/>
    </g>
   </g>
   <g id="text_28">
    <!-- 40 -->
    <g transform="translate(233.155867 83.112174)scale(0.1 -0.1)">
     <use xlink:href="#DejaVuSans-34"/>
     <use x="63.623047" xlink:href="#DejaVuSans-30"/>
    </g>
   </g>
   <g id="text_29">
    <!-- 29 -->
    <g transform="translate(257.679801 111.984866)scale(0.1 -0.1)">
     <use xlink:href="#DejaVuSans-32"/>
     <use x="63.623047" xlink:href="#DejaVuSans-39"/>
    </g>
   </g>
   <g id="text_30">
    <!-- 7 -->
    <g transform="translate(285.384984 169.730248)scale(0.1 -0.1)">
     <use xlink:href="#DejaVuSans-37"/>
    </g>
   </g>
   <g id="text_31">
    <!-- 1 -->
    <g transform="translate(309.908917 185.478989)scale(0.1 -0.1)">
     <use xlink:href="#DejaVuSans-31"/>
    </g>
   </g>
   <g id="text_32">
    <!-- 1 -->
    <g transform="translate(334.43285 185.478989)scale(0.1 -0.1)">
     <use xlink:href="#DejaVuSans-31"/>
    </g>
   </g>
   <g id="text_33">
    <!-- 1 -->
    <g transform="translate(358.956783 185.478989)scale(0.1 -0.1)">
     <use xlink:href="#DejaVuSans-31"/>
    </g>
   </g>
   <g id="patch_17">
    <path clip-path="url(#pa6d10d72c1)" d="M 208.863451 191.561481 
L 221.125417 191.561481 
L 221.125417 60.321975 
L 208.863451 60.321975 
z
"/>
   </g>
   <g id="patch_18">
    <path clip-path="url(#pa6d10d72c1)" d="M 233.387384 191.561481 
L 245.649351 191.561481 
L 245.649351 86.569877 
L 233.387384 86.569877 
z
"/>
   </g>
   <g id="patch_19">
    <path clip-path="url(#pa6d10d72c1)" d="M 257.911317 191.561481 
L 270.173284 191.561481 
L 270.173284 115.442568 
L 257.911317 115.442568 
z
"/>
   </g>
   <g id="patch_20">
    <path clip-path="url(#pa6d10d72c1)" d="M 282.43525 191.561481 
L 294.697217 191.561481 
L 294.697217 173.187951 
L 282.43525 173.187951 
z
"/>
   </g>
   <g id="patch_21">
    <path clip-path="url(#pa6d10d72c1)" d="M 306.959184 191.561481 
L 319.22115 191.561481 
L 319.22115 188.936691 
L 306.959184 188.936691 
z
"/>
   </g>
   <g id="patch_22">
    <path clip-path="url(#pa6d10d72c1)" d="M 331.483117 191.561481 
L 343.745083 191.561481 
L 343.745083 188.936691 
L 331.483117 188.936691 
z
"/>
   </g>
   <g id="patch_23">
    <path clip-path="url(#pa6d10d72c1)" d="M 356.00705 191.561481 
L 368.269017 191.561481 
L 368.269017 188.936691 
L 356.00705 188.936691 
z
"/>
   </g>
  </g>
 </g>
 <defs>
  <clipPath id="p3c4e59c5fb">
   <rect height="187.911111" width="322.4" x="52" y="204.088889"/>
  </clipPath>
  <clipPath id="p9ce8625aeb">
   <rect height="187.911111" width="171.667532" x="202.732468" y="204.088889"/>
  </clipPath>
  <clipPath id="p7e803b9235">
   <rect height="187.911111" width="46.057143" x="52" y="204.088889"/>
  </clipPath>
  <clipPath id="pa6d10d72c1">
   <rect height="137.801481" width="171.667532" x="202.732468" y="53.76"/>
  </clipPath>
 </defs>
</svg>
