<svg id="Layer_1" data-name="Layer 1" xmlns="http://www.w3.org/2000/svg" viewBox="0 0 617.24 444.85"><defs><style>.cls-1,.cls-23{fill:#3b4253;}.cls-2,.cls-3,.cls-4{fill:none;}.cls-14,.cls-2,.cls-23,.cls-29,.cls-3,.cls-39,.cls-4,.cls-5,.cls-9{stroke:#231f20;stroke-miterlimit:10;}.cls-3{stroke-dasharray:3.01 3.01;}.cls-4{stroke-dasharray:3.02 3.02;}.cls-5{fill:#89c0cf;}.cls-6,.cls-8{font-size:12px;}.cls-22,.cls-30,.cls-6,.cls-8{fill:#231f20;}.cls-30,.cls-6,.cls-8{font-family:MyriadPro-Regular, Myriad Pro;}.cls-10,.cls-6{letter-spacing:0.01em;}.cls-7{letter-spacing:0em;}.cls-38,.cls-9{fill:#81a1c1;}.cls-11{letter-spacing:-0.01em;}.cls-12{letter-spacing:0em;}.cls-13{letter-spacing:0em;}.cls-14{fill:#5e81ac;}.cls-15{letter-spacing:0em;}.cls-16{fill:#bf616a;}.cls-17{letter-spacing:-0.01em;}.cls-18{letter-spacing:-0.01em;}.cls-19{letter-spacing:0.01em;}.cls-20{letter-spacing:-0.01em;}.cls-21{fill:#2e3440;}.cls-23{stroke-dasharray:3;}.cls-24{letter-spacing:-0.01em;}.cls-25{letter-spacing:0em;}.cls-26{letter-spacing:0.01em;}.cls-27{letter-spacing:0em;}.cls-28{letter-spacing:-0.01em;}.cls-29{fill:#a4be8c;}.cls-30{font-size:15px;}.cls-31{letter-spacing:0.01em;}.cls-32{letter-spacing:0em;}.cls-33{letter-spacing:-0.01em;}.cls-34{letter-spacing:0.01em;}.cls-35{letter-spacing:-0.01em;}.cls-36{letter-spacing:0.01em;}.cls-37{letter-spacing:0em;}.cls-39,.cls-42{fill:#eccb8b;}.cls-40{letter-spacing:-0.03em;}.cls-41{letter-spacing:-0.02em;}</style></defs><line class="cls-1" x1="213.35" y1="222.42" x2="212.31" y2="132.07"/><line class="cls-2" x1="213.35" y1="222.42" x2="213.33" y2="220.92"/><line class="cls-3" x1="213.3" y1="217.91" x2="212.34" y2="135.08"/><line class="cls-2" x1="212.33" y1="133.57" x2="212.31" y2="132.07"/><line class="cls-1" x1="213.87" y1="325.23" x2="212.83" y2="222.43"/><line class="cls-2" x1="213.87" y1="325.23" x2="213.85" y2="323.73"/><line class="cls-4" x1="213.82" y1="320.71" x2="212.86" y2="225.44"/><line class="cls-2" x1="212.84" y1="223.93" x2="212.83" y2="222.43"/><rect class="cls-5" x="0.5" y="0.5" width="100" height="80" rx="10"/><text class="cls-6" transform="translate(18.56 25.07)">M<tspan class="cls-7" x="9.72" y="0">adagascar</tspan></text><text class="cls-8" transform="translate(30.34 58.01)">n=109</text><rect class="cls-9" x="0.5" y="182.42" width="100" height="80" rx="10"/><text class="cls-8" transform="translate(19.25 203.55)"><tspan class="cls-10">S</tspan><tspan x="5.99" y="0">outh </tspan><tspan class="cls-11" x="32.36" y="0">A</tspan><tspan x="39.62" y="0">f</tspan><tspan class="cls-12" x="43.13" y="0">r</tspan><tspan class="cls-13" x="47.1" y="0">ica</tspan></text><text class="cls-8" transform="translate(36.95 233.5)">n=67</text><rect class="cls-14" x="0.5" y="364.35" width="100" height="80" rx="10"/><text class="cls-8" transform="translate(19.25 387.63)">Bi<tspan class="cls-15" x="9.31" y="0">r</tspan><tspan class="cls-7" x="13.28" y="0">mingham</tspan></text><text class="cls-8" transform="translate(35.69 422.48)">n=32</text><rect class="cls-16" x="142.31" y="83.91" width="140" height="48.16" rx="5"/><text class="cls-8" transform="translate(149.07 102.09)"><tspan class="cls-17">L</tspan><tspan class="cls-18" x="5.5" y="0">o</tspan><tspan x="12" y="0">w </tspan><tspan class="cls-19" x="23.38" y="0">I</tspan><tspan x="26.36" y="0">llumina depth (&lt;20)</tspan></text><text class="cls-8" transform="translate(193.78 120.28)">n=1</text><rect class="cls-16" x="142.31" y="142.75" width="140" height="48.16" rx="5"/><text class="cls-8" transform="translate(144.76 157.77)"><tspan class="cls-17">L</tspan><tspan class="cls-18" x="5.5" y="0">o</tspan><tspan x="12" y="0">w Nanopo</tspan><tspan class="cls-20" x="63.72" y="0">r</tspan><tspan x="67.52" y="0">e depth (&lt;30)</tspan></text><text class="cls-8" transform="translate(193.78 175.95)">n=37</text><path class="cls-16" d="M279.75,73.21" transform="translate(-112.32 -77.71)"/><line class="cls-21" x1="100.5" y1="222.42" x2="310.07" y2="222.42"/><line class="cls-2" x1="100.5" y1="222.42" x2="306.51" y2="222.42"/><path class="cls-22" d="M418.43,300.14a7.35,7.35,0,0,1-1.58-4.55,13.57,13.57,0,0,0,5.54,4.55,14.34,14.34,0,0,0-5.54,4.54A7.57,7.57,0,0,1,418.43,300.14Z" transform="translate(-112.32 -77.71)"/><rect class="cls-16" x="142.31" y="25.07" width="140" height="48.16" rx="5"/><text class="cls-8" transform="translate(175.47 43.26)"><tspan class="cls-17">L</tspan><tspan class="cls-18" x="5.5" y="0">o</tspan><tspan x="12" y="0">w depth both</tspan></text><text class="cls-8" transform="translate(193.78 61.44)">n=6</text><polyline class="cls-2" points="98.05 77.05 139.73 222.42 98.05 367.79"/><line class="cls-23" x1="212.31" y1="83.91" x2="212.48" y2="73.08"/><rect class="cls-16" x="142.31" y="325.23" width="140" height="48.16" rx="5"/><text class="cls-8" transform="translate(155.45 340.25)"><tspan class="cls-19">I</tspan><tspan x="2.99" y="0">nde</tspan><tspan class="cls-24" x="22.43" y="0">t</tspan><tspan x="26.33" y="0">e</tspan><tspan class="cls-12" x="32.34" y="0">r</tspan><tspan x="36.31" y="0">mina</tspan><tspan class="cls-25" x="61.57" y="0">n</tspan><tspan class="cls-7" x="68.18" y="0">t lineage</tspan></text><text class="cls-8" transform="translate(193.78 358.44)">n=12</text><rect class="cls-16" x="142.83" y="249.75" width="140" height="48.16" rx="5"/><text class="cls-8" transform="translate(166.91 266.91)"><tspan class="cls-26">M</tspan><tspan class="cls-13" x="9.79" y="0">ism</tspan><tspan class="cls-27" x="27.36" y="0">a</tspan><tspan class="cls-28" x="33.1" y="0">t</tspan><tspan x="37" y="0">ched d</tspan><tspan class="cls-25" x="71.12" y="0">a</tspan><tspan class="cls-7" x="76.86" y="0">ta</tspan></text><text class="cls-8" transform="translate(198.63 284.64)">n=1</text><rect class="cls-9" x="310.07" y="185.58" width="100" height="80" rx="10"/><text class="cls-8" transform="translate(328.82 206.71)"><tspan class="cls-10">S</tspan><tspan x="5.99" y="0">outh </tspan><tspan class="cls-11" x="32.36" y="0">A</tspan><tspan x="39.62" y="0">f</tspan><tspan class="cls-12" x="43.13" y="0">r</tspan><tspan class="cls-13" x="47.1" y="0">ica</tspan></text><text class="cls-8" transform="translate(346.52 236.65)">n=41</text><rect class="cls-5" x="310.07" y="0.5" width="100" height="80" rx="10"/><text class="cls-6" transform="translate(328.13 25.07)">M<tspan class="cls-7" x="9.72" y="0">adagascar</tspan></text><text class="cls-8" transform="translate(346.08 58.01)">n=91</text><rect class="cls-14" x="310.07" y="364.35" width="100" height="80" rx="10"/><text class="cls-8" transform="translate(328.82 387.63)">Bi<tspan class="cls-15" x="9.31" y="0">r</tspan><tspan class="cls-7" x="13.28" y="0">mingham</tspan></text><text class="cls-8" transform="translate(345.26 422.48)">n=19</text><polyline class="cls-2" points="311.93 80.52 279.13 222.42 311.93 364.32"/><path class="cls-22" d="M424.16,158.62a7.34,7.34,0,0,0,4.07,2.57,13.65,13.65,0,0,1-3.18-6.43,14.32,14.32,0,0,1-5.67,4.38A7.6,7.6,0,0,0,424.16,158.62Z" transform="translate(-112.32 -77.71)"/><path class="cls-22" d="M424.16,441.65a7.34,7.34,0,0,1,4.07-2.57,13.65,13.65,0,0,0-3.18,6.43,14.32,14.32,0,0,0-5.67-4.38A7.6,7.6,0,0,1,424.16,441.65Z" transform="translate(-112.32 -77.71)"/><polyline class="cls-2" points="408.15 77.05 449.84 222.42 408.15 367.79"/><line class="cls-2" x1="410.07" y1="222.42" x2="449.84" y2="222.42"/><rect class="cls-29" x="476.74" y="172.42" width="140" height="100" rx="10"/><text class="cls-30" transform="translate(494.4 190.91) scale(0.96 1)"><tspan class="cls-31">M</tspan><tspan class="cls-32" x="12.15" y="0">a</tspan><tspan class="cls-33" x="19.32" y="0">t</tspan><tspan x="24.19" y="0">ched </tspan><tspan class="cls-34" x="58.39" y="0">I</tspan><tspan x="62.13" y="0">llumina</tspan><tspan x="-7.88" y="18">and Nanopo</tspan><tspan class="cls-35" x="69.75" y="18">r</tspan><tspan x="74.5" y="18">e high </tspan><tspan x="17.44" y="36">quali</tspan><tspan class="cls-36" x="48.43" y="36">t</tspan><tspan x="53.53" y="36">y d</tspan><tspan class="cls-37" x="72.24" y="36">a</tspan><tspan x="79.41" y="36">ta</tspan></text><text class="cls-30" transform="translate(531.48 251.94) scale(0.96 1)">n=151</text><line class="cls-38" x1="449.84" y1="222.42" x2="476.74" y2="222.43"/><line class="cls-2" x1="449.84" y1="222.42" x2="473.18" y2="222.43"/><path class="cls-22" d="M585.1,300.14a7.38,7.38,0,0,1-1.58-4.54,13.59,13.59,0,0,0,5.55,4.54,14.24,14.24,0,0,0-5.55,4.55A7.67,7.67,0,0,1,585.1,300.14Z" transform="translate(-112.32 -77.71)"/><rect class="cls-39" x="466.74" y="7.89" width="120" height="48" rx="10"/><text class="cls-8" transform="translate(474.53 20.17)"><tspan class="cls-40">P</tspan><tspan x="6.07" y="0">acBio </tspan><tspan class="cls-41" x="35.68" y="0">C</tspan><tspan x="42.38" y="0">CS assembly</tspan></text><text class="cls-8" transform="translate(516.76 40.5)">n=7</text><line class="cls-42" x1="410.07" y1="34.74" x2="466.74" y2="34.74"/><line class="cls-2" x1="410.07" y1="34.74" x2="463.18" y2="34.74"/><path class="cls-22" d="M575.1,112.45a7.38,7.38,0,0,1-1.58-4.54,13.59,13.59,0,0,0,5.55,4.54,14.24,14.24,0,0,0-5.55,4.55A7.67,7.67,0,0,1,575.1,112.45Z" transform="translate(-112.32 -77.71)"/></svg>